<?xml version="1.0" encoding="UTF-8" standalone="no"?>
<!-- Created with Inkscape (http://www.inkscape.org/) -->

<svg
   xmlns:dc="http://purl.org/dc/elements/1.1/"
   xmlns:cc="http://creativecommons.org/ns#"
   xmlns:rdf="http://www.w3.org/1999/02/22-rdf-syntax-ns#"
   xmlns:svg="http://www.w3.org/2000/svg"
   xmlns="http://www.w3.org/2000/svg"
   xmlns:sodipodi="http://sodipodi.sourceforge.net/DTD/sodipodi-0.dtd"
   xmlns:inkscape="http://www.inkscape.org/namespaces/inkscape"
   width="744.09448819"
   height="1052.3622047"
   id="svg2"
   version="1.1"
   inkscape:version="0.48.5 r10040"
   sodipodi:docname="New document 1">
  <defs
     id="defs4" />
  <sodipodi:namedview
     id="base"
     pagecolor="#ffffff"
     bordercolor="#666666"
     borderopacity="1.0"
     inkscape:pageopacity="0.0"
     inkscape:pageshadow="2"
     inkscape:zoom="1"
     inkscape:cx="135.04962"
     inkscape:cy="463.94883"
     inkscape:document-units="px"
     inkscape:current-layer="layer1"
     showgrid="false"
     showborder="false"
     inkscape:object-paths="true"
     inkscape:object-nodes="true"
     inkscape:window-width="1280"
     inkscape:window-height="734"
     inkscape:window-x="0"
     inkscape:window-y="25"
     inkscape:window-maximized="1" />
  <metadata
     id="metadata7">
    <rdf:RDF>
      <cc:Work
         rdf:about="">
        <dc:format>image/svg+xml</dc:format>
        <dc:type
           rdf:resource="http://purl.org/dc/dcmitype/StillImage" />
        <dc:title></dc:title>
      </cc:Work>
    </rdf:RDF>
  </metadata>
  <g
     inkscape:label="Layer 1"
     inkscape:groupmode="layer"
     id="layer1">
    <path
       style="fill:#90a8a3;stroke:none;stroke-width:1px;stroke-linecap:butt;stroke-linejoin:miter;stroke-opacity:1;fill-opacity:1"
       d="m 19,460.36218 79,-46 122,14 64,101 -28,103 -91,78 -112,25 -25,-49 -61,-51 26,-74 -10,-74 z"
       id="path3765"
       inkscape:connector-curvature="0" />
    <path
       style="fill:#84a19b;stroke:none;stroke-width:1px;stroke-linecap:butt;stroke-linejoin:miter;stroke-opacity:1;fill-opacity:1"
       d="m -33,635.36218 26,-74 46,73 33,19 83,2 43,-38 31,-57 55,-31 -28,103 -91,78 -112,25 -25,-49 z"
       id="path3767"
       inkscape:connector-curvature="0" />
    <path
       style="fill:#799892;stroke:none;stroke-width:1px;stroke-linecap:butt;stroke-linejoin:miter;stroke-opacity:1;fill-opacity:1"
       d="m -7,561.36218 -26,74 61,51 25,49 112,-25 91,-78 28,-103 -44,81 -53,52 -30,28 -43,5 -32,13 -20,-20 -67,-56 -2,-71 z"
       id="path3769"
       inkscape:connector-curvature="0" />
    <path
       style="fill:#8aa49f;stroke:none;stroke-width:1px;stroke-linecap:butt;stroke-linejoin:miter;stroke-opacity:1;fill-opacity:1"
       d="m 98,414.36218 -7,35 8,28 32,24 43,8 31,-19 15,-62 z"
       id="path3771"
       inkscape:connector-curvature="0" />
    <path
       style="fill:#84a19b;stroke:none;stroke-width:1px;stroke-linecap:butt;stroke-linejoin:miter;stroke-opacity:1;fill-opacity:1"
       d="m 98,414.36218 16,27 -4.22167,25.33881 8.3085,16.44023 30.75915,12.37437 32.35013,-1.41421 15.37958,-18.208 8.83883,-13.43503 6.03931,-35.07688 z"
       id="path3773"
       inkscape:connector-curvature="0" />
    <path
       style="fill:#8aa49f;stroke:none;stroke-width:1px;stroke-linecap:butt;stroke-linejoin:miter;stroke-opacity:1;fill-opacity:1"
       d="M -11.612133,527.23239 44.547727,533.3458 65.053824,494.80849 33.781868,451.75502 -17,487.36218 z"
       id="path3777"
       inkscape:connector-curvature="0" />
    <path
       style="fill:#84a19b;stroke:none;stroke-width:1px;stroke-linecap:butt;stroke-linejoin:miter;stroke-opacity:1;fill-opacity:1"
       d="m -5.3033009,494.45493 0,26.16295 42.7799599,4.5962 9.545942,-27.57717 -15.202796,-18.03122 z"
       id="path3779"
       inkscape:connector-curvature="0" />
    <path
       style="fill:#8aa49f;stroke:none;stroke-width:1px;stroke-linecap:butt;stroke-linejoin:miter;stroke-opacity:1;fill-opacity:1"
       d="M -11.612133,527.23239 40.5,573.86218 l 96.5,24 42.5,-27.5 75.86854,-86.18402 28.63146,45.18402 -55,31 -31,57 -43,38 -83,-2 -33,-19 -46,-73 z"
       id="path3781"
       inkscape:connector-curvature="0" />
    <path
       style="fill:#70908a;stroke:none;stroke-width:1px;stroke-linecap:butt;stroke-linejoin:miter;stroke-opacity:1;fill-opacity:1"
       d="m 138.72752,419.03583 -10.74119,10.71883 3.18198,16.97056 13.08147,9.19239 20.15255,-2.82842 6.71751,-4.24265 2.12132,-10.6066 -2.43809,-15.52331 z"
       id="path3783"
       inkscape:connector-curvature="0" />
    <path
       style="fill:#65857f;fill-opacity:1;stroke:none"
       d="m 170.80307,422.71663 -1.36261,4.03282 -2.2981,6.36397 1.41422,7.33623 -4.15425,12.63954 6.71751,-4.24265 2.12132,-10.6066 z"
       id="path3785"
       inkscape:connector-curvature="0"
       sodipodi:nodetypes="cccccccc" />
    <path
       style="fill:#5b7b75;stroke:none;stroke-width:1px;stroke-linecap:butt;stroke-linejoin:miter;stroke-opacity:1;fill-opacity:1"
       d="m 172.56817,433.95504 -0.47442,2.65714 -0.0312,1.03125 -0.0312,1.71875 0.78891,0.98278 0.421,-2.10502 z"
       id="path3787"
       inkscape:connector-curvature="0" />
  </g>
</svg>
