<?xml version="1.0" encoding="UTF-8" standalone="no"?>
<!-- Created with Inkscape (http://www.inkscape.org/) -->

<svg
   xmlns:dc="http://purl.org/dc/elements/1.1/"
   xmlns:cc="http://creativecommons.org/ns#"
   xmlns:rdf="http://www.w3.org/1999/02/22-rdf-syntax-ns#"
   xmlns:svg="http://www.w3.org/2000/svg"
   xmlns="http://www.w3.org/2000/svg"
   xmlns:sodipodi="http://sodipodi.sourceforge.net/DTD/sodipodi-0.dtd"
   xmlns:inkscape="http://www.inkscape.org/namespaces/inkscape"
   width="744.09448819"
   height="1052.3622047"
   id="svg2"
   version="1.1"
   inkscape:version="0.48.5 r10040"
   sodipodi:docname="drawing.svg">
  <defs
     id="defs4" />
  <sodipodi:namedview
     id="base"
     pagecolor="#ffffff"
     bordercolor="#666666"
     borderopacity="1.0"
     inkscape:pageopacity="0.0"
     inkscape:pageshadow="2"
     inkscape:zoom="0.49497475"
     inkscape:cx="841.41934"
     inkscape:cy="265.69645"
     inkscape:document-units="px"
     inkscape:current-layer="layer1"
     showgrid="true"
     showborder="false"
     inkscape:window-width="1280"
     inkscape:window-height="726"
     inkscape:window-x="0"
     inkscape:window-y="25"
     inkscape:window-maximized="1"
     inkscape:snap-to-guides="true"
     inkscape:snap-grids="false">
    <inkscape:grid
       type="axonomgrid"
       id="grid2985"
       units="mm"
       empspacing="5"
       visible="true"
       enabled="true"
       snapvisiblegridlinesonly="true"
       spacingy="10mm" />
  </sodipodi:namedview>
  <metadata
     id="metadata7">
    <rdf:RDF>
      <cc:Work
         rdf:about="">
        <dc:format>image/svg+xml</dc:format>
        <dc:type
           rdf:resource="http://purl.org/dc/dcmitype/StillImage" />
        <dc:title />
      </cc:Work>
    </rdf:RDF>
  </metadata>
  <g
     inkscape:label="Layer 1"
     inkscape:groupmode="layer"
     id="layer1">
    <path
       style="fill:#afdde9;stroke:none;stroke-width:1px;stroke-linecap:butt;stroke-linejoin:miter;stroke-opacity:1"
       d="m 460.28909,786.61415 153.4297,-88.58268 153.4297,88.58268 -153.4297,88.58268 z"
       id="path3755"
       inkscape:connector-curvature="0" />
    <path
       style="fill:#2d8dab;stroke:none;stroke-width:1px;stroke-linecap:butt;stroke-linejoin:miter;stroke-opacity:1;fill-opacity:1"
       d="m 460.28909,786.61415 0,35.43307 153.4297,88.58268 0,-35.43307 z"
       id="path3757"
       inkscape:connector-curvature="0" />
    <path
       style="fill:#55b6d0;stroke:none;stroke-width:1px;stroke-linecap:butt;stroke-linejoin:miter;stroke-opacity:1;fill-opacity:1"
       d="m 767.14849,786.61415 0,35.43307 -153.4297,88.58268 0,-35.43307 z"
       id="path3759"
       inkscape:connector-curvature="0" />
    <path
       style="fill:#aaeeff;fill-opacity:1;stroke:none"
       d="m 460.28909,822.04722 30.68594,88.58268 0,-35.43307 61.37188,70.86614 0,-35.43307 30.68594,88.58268 0,-70.86615 30.68594,124.01577 0,-70.86616 0,-70.86614 z"
       id="path3761"
       inkscape:connector-curvature="0"
       sodipodi:nodetypes="ccccccccccc" />
    <path
       style="fill:#d5f6ff;stroke:none"
       d="m 767.14849,822.04722 -61.37188,106.29921 0,-35.43307 -30.68594,124.01574 0,-106.2992 0,35.43307 -61.37188,141.73233 0,-106.29926 0,-70.86614 z"
       id="path3763"
       inkscape:connector-curvature="0"
       sodipodi:nodetypes="cccccccccc" />
    <path
       style="fill:#99e8ff;fill-opacity:1;stroke:none"
       d="m 679.76007,898.6492 21.59457,-8.22236 -17.85086,58.07859 -2.67408,11.31116 c 0,0 4.81335,-30.75769 4.81335,-37.37038 0,-6.61271 -5.88298,-23.79701 -5.88298,-23.79701 z"
       id="path3765"
       inkscape:connector-curvature="0"
       sodipodi:nodetypes="ccccsc" />
    <path
       sodipodi:nodetypes="cccccccc"
       inkscape:connector-curvature="0"
       id="path3760"
       d="m 625.28257,986.78373 17.72561,10.6758 -4.74471,13.55887 -11.93073,21.495 -3.01598,28.5476 -4.33619,-29.0452 c 0,0 11.25446,-19.9078 11.52386,-22.0329 -4.12177,-22.24985 -5.22186,-23.19917 -5.22186,-23.19917 z"
       style="fill:#99e9ff;fill-opacity:0.85781992;stroke:none" />
    <path
       style="fill:#5ddeff;fill-opacity:1;stroke:none"
       d="m 584.64285,922.71931 20.54026,13.02935 -0.0215,18.23031 4.72887,6.57541 1.37374,26.09351 -5.46395,-26.03271 -8.72296,-7.09452 z"
       id="path3764"
       inkscape:connector-curvature="0"
       sodipodi:nodetypes="cccccccc" />
    <path
       style="fill:#5ddeff;fill-opacity:1;stroke:none"
       d="m 474.77171,835.17938 30.0094,36.87057 0.80025,-18.43528 z"
       id="path3772"
       inkscape:connector-curvature="0" />
  </g>
</svg>
