<?xml version="1.0" encoding="UTF-8" standalone="no"?>
<!-- Created with Inkscape (http://www.inkscape.org/) -->

<svg
   xmlns:dc="http://purl.org/dc/elements/1.1/"
   xmlns:cc="http://creativecommons.org/ns#"
   xmlns:rdf="http://www.w3.org/1999/02/22-rdf-syntax-ns#"
   xmlns:svg="http://www.w3.org/2000/svg"
   xmlns="http://www.w3.org/2000/svg"
   xmlns:sodipodi="http://sodipodi.sourceforge.net/DTD/sodipodi-0.dtd"
   xmlns:inkscape="http://www.inkscape.org/namespaces/inkscape"
   width="744.09448819"
   height="1052.3622047"
   id="svg2"
   version="1.1"
   inkscape:version="0.48.5 r10040"
   sodipodi:docname="New document 1">
  <defs
     id="defs4" />
  <sodipodi:namedview
     id="base"
     pagecolor="#ffffff"
     bordercolor="#666666"
     borderopacity="1.0"
     inkscape:pageopacity="0.0"
     inkscape:pageshadow="2"
     inkscape:zoom="0.29"
     inkscape:cx="-218.54574"
     inkscape:cy="514.94386"
     inkscape:document-units="px"
     inkscape:current-layer="layer1"
     showgrid="true"
     showborder="false"
     inkscape:window-width="1280"
     inkscape:window-height="723"
     inkscape:window-x="0"
     inkscape:window-y="25"
     inkscape:window-maximized="1" />
  <metadata
     id="metadata7">
    <rdf:RDF>
      <cc:Work
         rdf:about="">
        <dc:format>image/svg+xml</dc:format>
        <dc:type
           rdf:resource="http://purl.org/dc/dcmitype/StillImage" />
        <dc:title></dc:title>
      </cc:Work>
    </rdf:RDF>
  </metadata>
  <g
     inkscape:label="Layer 1"
     inkscape:groupmode="layer"
     id="layer1">
    <g
       id="g3773"
       transform="matrix(0.66405292,0,0,0.66405292,-46.389834,148.20028)">
      <path
         inkscape:connector-curvature="0"
         id="path3755"
         d="m 460.28909,786.61415 0,-177.16535 0,-177.16536 0,-177.16535 L 306.8594,166.53541 153.4297,77.952734 0,-10.629943 -153.4297,-99.212621 -306.8594,-187.7953 l 0,177.165357 0,177.165353 0,177.16536 z"
         style="fill:#333333;stroke:none" />
      <path
         inkscape:connector-curvature="0"
         id="path3757"
         d="m -276.17346,-134.64569 0,460.62992 705.77661,407.48031 0,-460.62992 z"
         style="fill:#3770c8;fill-opacity:1;stroke:none" />
      <path
         inkscape:connector-curvature="0"
         id="path3759"
         d="m -306.8594,-187.7953 30.68594,-17.71653 767.14849,442.91338 -30.68594,17.71654 z"
         style="fill:#ececec;stroke:none" />
      <path
         inkscape:connector-curvature="0"
         id="path3761"
         d="m 460.28909,255.11809 30.68594,-17.71654 0,531.49607 -30.68594,17.71653 z"
         style="fill:#bababa;fill-opacity:1;stroke:none" />
      <path
         inkscape:connector-curvature="0"
         id="path3763"
         d="M -306.8594,343.70077 -767.14849,609.4488 0,1052.3622 460.28909,786.61415 z"
         style="fill:#ececec;fill-opacity:1;stroke:none" />
      <path
         inkscape:connector-curvature="0"
         id="path3765"
         d="m -767.14849,609.4488 0,35.43307 L -30.68594,1070.0787 0,1087.7953 0,1052.3622 z"
         style="fill:#d5d5d5;fill-opacity:1;stroke:none" />
      <path
         inkscape:connector-curvature="0"
         id="path3767"
         d="m 0,1052.3622 0,35.4331 490.97503,-283.46461 0,-35.43307 z"
         style="fill:#bababa;fill-opacity:1;stroke:none" />
      <path
         inkscape:connector-curvature="0"
         id="path3769"
         d="M -306.8594,379.13384 398.91721,786.61415 184.11564,910.6299 153.4297,928.34643 -552.34691,520.86612 z"
         style="fill:#cdcdcd;fill-opacity:1;stroke:none" />
      <path
         inkscape:connector-curvature="0"
         id="path3771"
         d="m -306.8594,698.03147 -92.05781,53.14961 153.42969,88.58268 92.05782,-53.14961 z"
         style="fill:#cdcdcd;fill-opacity:1;stroke:none" />
    </g>
  </g>
</svg>
