<?xml version="1.0" encoding="UTF-8" standalone="no"?>
<!-- Created with Inkscape (http://www.inkscape.org/) -->

<svg
   xmlns:dc="http://purl.org/dc/elements/1.1/"
   xmlns:cc="http://creativecommons.org/ns#"
   xmlns:rdf="http://www.w3.org/1999/02/22-rdf-syntax-ns#"
   xmlns:svg="http://www.w3.org/2000/svg"
   xmlns="http://www.w3.org/2000/svg"
   xmlns:sodipodi="http://sodipodi.sourceforge.net/DTD/sodipodi-0.dtd"
   xmlns:inkscape="http://www.inkscape.org/namespaces/inkscape"
   width="744.09448819"
   height="1052.3622047"
   id="svg2"
   version="1.1"
   inkscape:version="0.48.5 r10040"
   sodipodi:docname="New document 1">
  <defs
     id="defs4" />
  <sodipodi:namedview
     id="base"
     pagecolor="#ffffff"
     bordercolor="#666666"
     borderopacity="1.0"
     inkscape:pageopacity="0.0"
     inkscape:pageshadow="2"
     inkscape:zoom="0.35"
     inkscape:cx="-125"
     inkscape:cy="508.57143"
     inkscape:document-units="px"
     inkscape:current-layer="layer1"
     showgrid="false"
     inkscape:showpageshadow="false"
     showborder="false"
     inkscape:window-width="1280"
     inkscape:window-height="723"
     inkscape:window-x="0"
     inkscape:window-y="25"
     inkscape:window-maximized="1" />
  <metadata
     id="metadata7">
    <rdf:RDF>
      <cc:Work
         rdf:about="">
        <dc:format>image/svg+xml</dc:format>
        <dc:type
           rdf:resource="http://purl.org/dc/dcmitype/StillImage" />
        <dc:title></dc:title>
      </cc:Work>
    </rdf:RDF>
  </metadata>
  <g
     inkscape:label="Layer 1"
     inkscape:groupmode="layer"
     id="layer1">
    <g
       id="g3802">
      <g
         transform="translate(0,-3.6589713e-6)"
         id="g3787">
        <g
           id="g3797">
          <path
             sodipodi:nodetypes="sssss"
             inkscape:connector-curvature="0"
             id="path2985"
             d="m 42.862797,694.06855 c 0,208.98899 -138.721686,94.85248 -274.052297,94.85248 -135.33062,0 -285.60059,106.59791 -294.53044,-102.2002 -8.57143,-200.41757 145.39225,-511.49495 280.72286,-511.49495 135.33061,0 287.859877,321.28227 287.859877,518.84267 z"
             style="fill:#8f75be;fill-opacity:1;stroke:#000000;stroke-width:0.02069462;stroke-linejoin:bevel;stroke-miterlimit:4;stroke-opacity:1;stroke-dashoffset:0.47099999" />
          <path
             sodipodi:nodetypes="scccs"
             inkscape:connector-curvature="0"
             id="rect3782"
             d="m -525.61056,454.42059 c 41.87598,-48.43837 106.60904,-120.715 106.60904,-120.715 l -89.09764,224.02172 -51.75334,130.99285 c 0,0 -25.63849,-165.03529 34.24194,-234.29957 z"
             style="fill:#8e75be;fill-opacity:0.99492385;stroke:#000000;stroke-width:0.0190159;stroke-linejoin:bevel;stroke-miterlimit:4;stroke-opacity:1;stroke-dashoffset:0.47099999" />
          <path
             style="fill:#8e75be;fill-opacity:0.99492385;stroke:#000000;stroke-width:0.0190159;stroke-linejoin:bevel;stroke-miterlimit:4;stroke-opacity:1;stroke-dashoffset:0.47099999"
             d="m 32.729281,454.42059 c -41.8759796,-48.43837 -106.60904,-120.715 -106.60904,-120.715 l 89.09764,224.02172 51.75334,130.99285 c 0,0 25.63849,-165.03529 -34.24194,-234.29957 z"
             id="path3795"
             inkscape:connector-curvature="0"
             sodipodi:nodetypes="scccs" />
        </g>
      </g>
      <path
         sodipodi:nodetypes="sscss"
         inkscape:connector-curvature="0"
         id="rect3792"
         d="m -377.14284,178.07647 c -38.8682,-3.73896 78.10807,1.00176 117.14284,0 44.57047,-1.14382 40,37.14285 40,37.14285 0,0 81.34271,89.69912 65.71431,80 -25.20278,-15.64097 -113.58296,-106.63112 -222.85715,-117.14285 z"
         style="fill:#8e75be;fill-opacity:0.99492385;stroke:#000000;stroke-width:0.02;stroke-linejoin:bevel;stroke-miterlimit:4;stroke-opacity:1;stroke-dashoffset:0.47099999" />
    </g>
    <path
       sodipodi:nodetypes="sssss"
       inkscape:connector-curvature="0"
       id="path3780"
       d="m -1.1632387,737.67202 c 0,89.28576 -107.8356113,26.69426 -236.9855613,26.69426 -129.14998,0 -246.40223,68.86926 -246.40223,-20.4165 0,-89.28576 123.53002,-208.74938 252.68,-208.74938 129.14995,0 230.7077913,113.18586 230.7077913,202.47162 z"
       style="fill:#cfed32;fill-opacity:1;stroke:#000000;stroke-width:0.01797007000000000;stroke-linejoin:bevel;stroke-miterlimit:4;stroke-opacity:1;stroke-dashoffset:0.47099998999999998" />
    <path
       style="opacity:1;fill:#e1daee;fill-opacity:1;stroke:#000000;stroke-width:0.01635712000000000;stroke-linejoin:bevel;stroke-miterlimit:4;stroke-opacity:1;stroke-dashoffset:0.47099998999999998"
       d="m -22.857113,730.92105 c 0,81.27168 -98.156537,24.29825 -215.714297,24.29825 -117.55778,0 -224.28575,62.68772 -224.28575,-18.58396 0,-81.27168 112.44226,-190.01253 230.00004,-190.01253 117.55776,0 210.000007,103.02656 210.000007,184.29824 z"
       id="path3756"
       inkscape:connector-curvature="0"
       sodipodi:nodetypes="sssss" />
    <g
       id="g3768"
       transform="matrix(0.78718395,-0.61671827,0.61671827,0.78718395,-21.564727,-372.52967)">
      <path
         sodipodi:nodetypes="sssss"
         inkscape:connector-curvature="0"
         id="path3761"
         d="m -937.12594,565.74167 c 0,53.66282 -47.5635,152.34535 -88.11936,152.34535 -40.5557,0 -77.6289,-103.4808 -77.6289,-157.14362 0,-53.66283 44.9524,5.86958 81.8251,8.39699 44.77085,3.06876 83.92316,-57.26154 83.92316,-3.59872 z"
         style="fill:#d45500;fill-opacity:1;stroke:#000000;stroke-width:0.01570496;stroke-linejoin:bevel;stroke-miterlimit:4;stroke-opacity:1;stroke-dashoffset:0.47099999" />
      <path
         transform="translate(-297.14286,8.5714286)"
         d="m -694.28571,570.93359 c 0,22.88037 -13.43145,41.42857 -30,41.42857 -16.56854,0 -30,-18.5482 -30,-41.42857 0,-22.88036 13.43146,-41.42857 30,-41.42857 16.56855,0 30,18.54821 30,41.42857 z"
         sodipodi:ry="41.42857"
         sodipodi:rx="30"
         sodipodi:cy="570.93359"
         sodipodi:cx="-724.28571"
         id="path3766"
         style="fill:#d45500;fill-opacity:1;stroke:#000000;stroke-width:0.02;stroke-linejoin:bevel;stroke-miterlimit:4;stroke-opacity:1;stroke-dasharray:none;stroke-dashoffset:0.47099999"
         sodipodi:type="arc" />
    </g>
    <g
       transform="matrix(-0.78718395,-0.61671827,-0.61671827,0.78718395,-444.17501,-369.67253)"
       id="g3772">
      <path
         style="fill:#d45500;fill-opacity:1;stroke:#000000;stroke-width:0.01570496;stroke-linejoin:bevel;stroke-miterlimit:4;stroke-opacity:1;stroke-dashoffset:0.47099999"
         d="m -937.12594,565.74167 c 0,53.66282 -47.5635,152.34535 -88.11936,152.34535 -40.5557,0 -77.6289,-103.4808 -77.6289,-157.14362 0,-53.66283 44.9524,5.86958 81.8251,8.39699 44.77085,3.06876 83.92316,-57.26154 83.92316,-3.59872 z"
         id="path3774"
         inkscape:connector-curvature="0"
         sodipodi:nodetypes="sssss" />
      <path
         sodipodi:type="arc"
         style="fill:#d45500;fill-opacity:1;stroke:#000000;stroke-width:0.02;stroke-linejoin:bevel;stroke-miterlimit:4;stroke-opacity:1;stroke-dasharray:none;stroke-dashoffset:0.47099999"
         id="path3776"
         sodipodi:cx="-724.28571"
         sodipodi:cy="570.93359"
         sodipodi:rx="30"
         sodipodi:ry="41.42857"
         d="m -694.28571,570.93359 c 0,22.88037 -13.43145,41.42857 -30,41.42857 -16.56854,0 -30,-18.5482 -30,-41.42857 0,-22.88036 13.43146,-41.42857 30,-41.42857 16.56855,0 30,18.54821 30,41.42857 z"
         transform="translate(-297.14286,8.5714286)" />
    </g>
    <path
       sodipodi:type="arc"
       style="fill:#f2f2f2;fill-opacity:0.99492385;stroke:#000000;stroke-width:0.02;stroke-linejoin:bevel;stroke-miterlimit:4;stroke-opacity:1;stroke-dasharray:none;stroke-dashoffset:0.47099999"
       id="path3810"
       sodipodi:cx="-1092.8572"
       sodipodi:cy="310.93362"
       sodipodi:rx="70"
       sodipodi:ry="67.14286"
       d="m -1022.8572,310.93362 a 70,67.14286 0 1 1 -140,0 70,67.14286 0 1 1 140,0 z"
       transform="translate(457.14286,-88.571429)" />
  </g>
</svg>
