<?xml version="1.0" encoding="UTF-8" standalone="no"?>
<!-- Created with Inkscape (http://www.inkscape.org/) -->

<svg
   xmlns:dc="http://purl.org/dc/elements/1.1/"
   xmlns:cc="http://creativecommons.org/ns#"
   xmlns:rdf="http://www.w3.org/1999/02/22-rdf-syntax-ns#"
   xmlns:svg="http://www.w3.org/2000/svg"
   xmlns="http://www.w3.org/2000/svg"
   xmlns:sodipodi="http://sodipodi.sourceforge.net/DTD/sodipodi-0.dtd"
   xmlns:inkscape="http://www.inkscape.org/namespaces/inkscape"
   width="744.09448819"
   height="1052.3622047"
   id="svg3775"
   version="1.1"
   inkscape:version="0.48.5 r10040"
   sodipodi:docname="New document 3">
  <defs
     id="defs3777" />
  <sodipodi:namedview
     id="base"
     pagecolor="#ffffff"
     bordercolor="#ffffff"
     borderopacity="0.0"
     inkscape:pageopacity="0.0"
     inkscape:pageshadow="0"
     inkscape:zoom="1"
     inkscape:cx="175"
     inkscape:cy="520"
     inkscape:document-units="px"
     inkscape:current-layer="layer1"
     showgrid="false"
     inkscape:object-paths="false"
     inkscape:snap-bbox="false"
     inkscape:window-width="1098"
     inkscape:window-height="639"
     inkscape:window-x="48"
     inkscape:window-y="49"
     inkscape:window-maximized="0" />
  <metadata
     id="metadata3780">
    <rdf:RDF>
      <cc:Work
         rdf:about="">
        <dc:format>image/svg+xml</dc:format>
        <dc:type
           rdf:resource="http://purl.org/dc/dcmitype/StillImage" />
        <dc:title></dc:title>
      </cc:Work>
    </rdf:RDF>
  </metadata>
  <g
     inkscape:label="Layer 1"
     inkscape:groupmode="layer"
     id="layer1">
    <g
       id="g4314"
       transform="matrix(0.8660254,0.5,-0.5,0.8660254,288.9497,39.375052)">
      <path
         id="path4307"
         d="m 71,453.375 c -41.973641,0 -76,34.02636 -76,76 0,9.71594 1.8333282,18.99043 5.15625,27.53125 L 26.75,627.625 c 0.976761,5.26235 2.86418,10.20805 5.5,14.65625 l 0.03125,0.0937 c 0.0026,0.004 0.02863,-0.004 0.03125,0 7.854164,13.18029 22.230191,22 38.6875,22 16.457309,0 30.83334,-8.81971 38.6875,-22 0.019,-0.0318 0.0436,-0.0619 0.0625,-0.0937 2.63582,-4.4482 4.52324,-9.3939 5.5,-14.65625 l 26.59375,-70.71875 C 145.16667,548.36543 147,539.09094 147,529.375 c 0,-41.97364 -34.02636,-76 -76,-76 z"
         style="fill:#1a1a1a;fill-opacity:1;stroke:#000053;stroke-width:0.01184881;stroke-linejoin:bevel;stroke-miterlimit:4;stroke-opacity:1;stroke-dashoffset:0.47099999"
         inkscape:connector-curvature="0" />
      <path
         inkscape:connector-curvature="0"
         style="fill:#333333;fill-opacity:1;stroke:#000053;stroke-width:0.0168447;stroke-linejoin:bevel;stroke-miterlimit:4;stroke-opacity:1;stroke-dashoffset:0.47099999"
         d="m 135.00986,529.36218 c 0,35.35167 -28.65819,64.00986 -64.00986,64.00986 -35.35167,0 -64.0098603,-28.65819 -64.0098603,-64.00986 0,-35.35167 28.6581903,-64.00986 64.0098603,-64.00986 35.35167,0 64.00986,28.65819 64.00986,64.00986 z"
         id="path4305" />
    </g>
    <g
       transform="matrix(-0.8660254,0.5,0.5,0.8660254,95.5316,39.375052)"
       id="g4318">
      <path
         inkscape:connector-curvature="0"
         style="fill:#1a1a1a;fill-opacity:1;stroke:#000053;stroke-width:0.01184881;stroke-linejoin:bevel;stroke-miterlimit:4;stroke-opacity:1;stroke-dashoffset:0.47099999"
         d="m 71,453.375 c -41.973641,0 -76,34.02636 -76,76 0,9.71594 1.8333282,18.99043 5.15625,27.53125 L 26.75,627.625 c 0.976761,5.26235 2.86418,10.20805 5.5,14.65625 l 0.03125,0.0937 c 0.0026,0.004 0.02863,-0.004 0.03125,0 7.854164,13.18029 22.230191,22 38.6875,22 16.457309,0 30.83334,-8.81971 38.6875,-22 0.019,-0.0318 0.0436,-0.0619 0.0625,-0.0937 2.63582,-4.4482 4.52324,-9.3939 5.5,-14.65625 l 26.59375,-70.71875 C 145.16667,548.36543 147,539.09094 147,529.375 c 0,-41.97364 -34.02636,-76 -76,-76 z"
         id="path4320" />
      <path
         id="path4322"
         d="m 135.00986,529.36218 c 0,35.35167 -28.65819,64.00986 -64.00986,64.00986 -35.35167,0 -64.0098603,-28.65819 -64.0098603,-64.00986 0,-35.35167 28.6581903,-64.00986 64.0098603,-64.00986 35.35167,0 64.00986,28.65819 64.00986,64.00986 z"
         style="fill:#333333;fill-opacity:1;stroke:#000053;stroke-width:0.0168447;stroke-linejoin:bevel;stroke-miterlimit:4;stroke-opacity:1;stroke-dashoffset:0.47099999"
         inkscape:connector-curvature="0" />
    </g>
  </g>
</svg>
